<svg width="1102" height="256" viewBox="0 0 1102 256" fill="none" xmlns="http://www.w3.org/2000/svg">
<g clip-path="url(#clip0_2216_9)">
<path fill-rule="evenodd" clip-rule="evenodd" d="M963.26 2.46974C958.842 2.46974 955.26 6.05146 955.26 10.4697V119.749C955.26 120.156 954.93 120.487 954.522 120.487C954.213 120.487 953.937 120.295 953.829 120.006L912.119 7.68475C910.954 4.5498 907.963 2.46974 904.619 2.46974H859.33C854.911 2.46974 851.33 6.05146 851.33 10.4697V122.678C850.078 41.9132 818.773 -0.347656 764.617 -0.347656C710.46 -0.347656 677.278 43.4784 677.278 128C677.278 137.369 677.825 146.19 678.408 154.72C678.428 155.009 678.005 155.088 677.899 154.818C667.607 128.526 644.346 112.946 624.874 99.9045C607.833 88.4907 593.695 79.0214 593.695 66.0176C593.695 56.3132 599.643 49.7393 608.721 49.7393C617.953 49.7393 624.244 58.562 626.389 72.2496C627.171 77.2411 631.8 80.9761 636.736 79.8981L675.084 71.5233C678.885 70.6932 681.572 67.2348 681.167 63.3656C677.029 23.8187 651.71 -0.347656 608.408 -0.347656C567.687 -0.347656 538.822 23.0613 532.299 58.1949C532.247 58.4748 531.822 58.4673 531.774 58.1865C525.652 21.9506 499.762 2.78278 454.704 2.78278H369.869H242.773H184.806C180.871 2.78278 177.52 5.64482 176.905 9.5317L154.28 152.426C154.223 152.782 153.917 153.044 153.557 153.044C153.196 153.044 152.889 152.781 152.833 152.424L130.509 9.54776C129.9 5.65356 126.546 2.78278 122.604 2.78278H7.85157C3.43329 2.78278 -0.148438 6.3645 -0.148438 10.7828V245.844C-0.148438 250.262 3.43328 253.844 7.85156 253.844H56.9646C61.3829 253.844 64.9646 250.262 64.9646 245.844V17.2218C64.9646 16.9238 65.3924 16.8758 65.4584 17.1665L117.707 247.302C118.534 250.945 121.773 253.531 125.508 253.531H180.624C184.378 253.531 187.627 250.92 188.436 247.254L239.462 15.979C239.526 15.687 239.956 15.7338 239.956 16.0328V245.531C239.956 249.949 243.538 253.531 247.956 253.531H369.556H425.417C429.835 253.531 433.417 249.949 433.417 245.531V167.374C433.417 165.165 435.208 163.374 437.417 163.374H444.686C455.33 163.374 459.086 167.444 461.278 181.531L465.034 226.609C466.04 235.666 467.653 243.509 470.198 249.49C471.298 252.076 473.954 253.531 476.764 253.531H524.596C530.854 253.531 534.939 246.473 533.081 240.497C531.634 235.841 530.617 230.834 529.834 225.357L523.886 174.644C521.399 153.499 509.028 141.312 493.829 137.468C493.649 137.423 493.521 137.261 493.521 137.074C493.521 136.892 493.643 136.733 493.819 136.684C511.766 131.676 527.583 114.534 531.178 88.1416C531.217 87.8544 531.664 87.8608 531.719 88.1455C537.905 120.338 563.824 137.52 585.885 152.144C603.913 164.095 619.365 174.338 619.365 189.67C619.365 199.374 613.73 205.322 603.712 205.322C592.737 205.322 584.379 195.723 582.099 179.075C581.373 173.777 576.321 169.837 571.174 171.287L533.108 182.006C529.538 183.012 527.091 186.355 527.486 190.043C531.861 230.799 561.436 256.035 604.339 256.035C648.74 256.035 681.6 229.005 683.175 186.312C683.186 186.019 683.632 185.971 683.705 186.255C695.573 232.274 723.546 256.035 764.617 256.035C819.086 256.035 850.078 214.087 851.33 133.009V245.218C851.33 249.636 854.911 253.218 859.33 253.218H902.182C906.6 253.218 910.182 249.636 910.182 245.218V133.625C910.182 133.112 910.598 132.696 911.111 132.696C911.494 132.696 911.838 132.932 911.977 133.289L956.412 248.105C957.605 251.186 960.569 253.218 963.873 253.218H1006.43C1010.84 253.218 1014.43 249.636 1014.43 245.218V10.4697C1014.43 6.05145 1010.84 2.46974 1006.43 2.46974H985.5H963.26ZM303.504 155.791C303.504 153.582 305.295 151.791 307.504 151.791H347.712C349.922 151.791 351.712 150.001 351.712 147.791V105.391C351.712 103.182 349.922 101.391 347.712 101.391H303.504V59.3741C303.504 57.165 305.295 55.3741 307.504 55.3741H368.743C369.019 55.3741 369.243 55.5979 369.243 55.8741V199.813C369.243 200.089 369.019 200.313 368.743 200.313H307.504C305.295 200.313 303.504 198.522 303.504 196.313V155.791ZM446.565 114.539H437.417C435.208 114.539 433.417 112.748 433.417 110.539V58.748C433.417 56.5389 435.208 54.748 437.417 54.748H446.565C462.217 54.748 466.599 64.1393 466.599 84.4871C466.599 104.835 462.217 114.539 446.565 114.539ZM764.617 202.818C749.591 202.818 743.956 182.783 743.956 128C743.956 73.2176 749.591 53.1828 764.617 53.1828C779.643 53.1828 784.965 73.2176 784.965 128C784.965 182.783 779.643 202.818 764.617 202.818ZM1051.93 44.418C1051.1 44.418 1050.43 43.7464 1050.43 42.918V13.0484C1050.43 12.22 1049.76 11.5484 1048.93 11.5484H1044.41C1043.59 11.5484 1042.91 10.8768 1042.91 10.0484V4.2832C1042.91 3.45478 1043.59 2.7832 1044.41 2.7832H1067.4C1068.22 2.7832 1068.9 3.45478 1068.9 4.2832V10.0484C1068.9 10.8768 1068.22 11.5484 1067.4 11.5484H1062.88C1062.06 11.5484 1061.38 12.22 1061.38 13.0484V42.918C1061.38 43.7464 1060.71 44.418 1059.88 44.418H1056H1051.93ZM1087.99 33.7736C1088.68 33.7736 1089.28 33.3053 1089.45 32.6377L1092.18 21.7262C1092.2 21.6118 1092.37 21.6326 1092.37 21.7505V42.6041C1092.37 43.4325 1093.04 44.1041 1093.87 44.1041H1100.89C1101.72 44.1041 1102.39 43.4325 1102.39 42.6041V3.65625C1102.39 2.82782 1101.72 2.15625 1100.89 2.15625H1092.56C1091.89 2.15625 1091.31 2.60022 1091.12 3.24417L1087.15 17.1588C1087.12 17.2556 1086.98 17.2556 1086.95 17.1588L1082.98 3.24417C1082.79 2.60022 1082.21 2.15625 1081.54 2.15625H1072.9C1072.07 2.15625 1071.4 2.82782 1071.4 3.65625V42.6041C1071.4 43.4325 1072.07 44.1041 1072.9 44.1041H1079.92C1080.74 44.1041 1081.42 43.4325 1081.42 42.6041V29.078V22.0642C1081.42 21.9463 1081.58 21.9256 1081.61 22.04L1084.26 32.6374C1084.43 33.3052 1085.03 33.7736 1085.72 33.7736H1087.99Z" fill="white"/>
</g>
<defs>
<clipPath id="clip0_2216_9">
<rect width="1102" height="256" fill="white"/>
</clipPath>
</defs>
</svg>
