<svg width="200" height="47" viewBox="0 0 200 47" fill="none" xmlns="http://www.w3.org/2000/svg">
<g clip-path="url(#clip0_33957_9337)">
<path fill-rule="evenodd" clip-rule="evenodd" d="M122.333 4.45876C122.333 6.87115 120.317 8.9508 117.933 8.9508C115.55 8.9508 113.417 6.92106 113.433 4.44212C113.433 1.97982 115.55 0 117.933 0C120.317 0 122.333 2.02973 122.333 4.45876ZM73.75 12.0453H82.8167L71.2 23.525L82.8667 40.2786H74.3L66.2333 28.4329L63.8 30.862V40.2786H56.5V1.2478H63.8167V22.2106L73.75 12.0453ZM103.383 40.2453H110.683L110.6 12.0287H103.4V14.7239C101.517 12.8605 98.8333 11.5462 94.8833 11.5462C86.5167 11.5462 80.8 18.0181 80.8 26.2035C80.8 34.3391 86.4833 40.8609 94.8833 40.8609C98.85 40.8609 101.533 39.5965 103.4 37.5667C103.4 38.1989 103.383 40.2453 103.383 40.2453ZM103.25 26.1869C103.25 31.2446 99.75 34.3724 95.75 34.3724C91.55 34.3724 88.2167 31.2945 88.2 26.1869C88.2 21.0793 91.55 18.0014 95.75 18.0014C99.75 18.0014 103.25 21.1292 103.25 26.1869ZM154.267 40.1954H147.083C147.083 40.1954 147.067 38.149 147.067 37.5168C145.2 39.5465 142.517 40.811 138.55 40.811C130.15 40.811 124.467 34.2892 124.467 26.1536C124.467 17.9681 130.183 11.4963 138.55 11.4963C142.5 11.4963 145.183 12.8106 147.067 14.674V11.9788H154.267V40.1954ZM139.4 34.3391C143.4 34.3391 146.9 31.2113 146.9 26.1536C146.9 21.0959 143.4 17.9681 139.4 17.9681C135.2 17.9681 131.85 21.046 131.85 26.1536C131.867 31.2446 135.2 34.3391 139.4 34.3391ZM165.433 37.5168C165.433 38.5317 165.4 40.2453 165.4 40.2453H158.133V1.2478H165.433V14.7572C167.3 12.8439 170.05 11.5129 174 11.5129C182.35 11.5129 188.033 17.9848 188.033 26.1703C188.033 34.3558 182.417 40.8276 174 40.8276C170.033 40.8609 167.3 39.5965 165.433 37.5168ZM173.133 34.389C177.333 34.389 180.683 31.2613 180.683 26.2036C180.683 21.1459 177.333 18.0181 173.133 18.0181C168.933 18.0181 165.633 21.1459 165.633 26.2036C165.633 31.2613 169.133 34.389 173.133 34.389ZM198.55 4.44212C198.55 2.02973 196.583 0 194.15 0C191.667 0 189.633 1.97982 189.65 4.44212C189.65 6.90442 191.717 8.93416 194.15 8.93416C196.567 8.93416 198.55 6.87115 198.55 4.44212ZM190.667 12.0287H198.017V35.6368C198.017 36.5685 198.033 37.7497 198.567 38.7147C199.017 39.5299 200 40.0457 200 40.0457V40.2287H192.033C192.033 40.2287 191.417 39.8627 191.067 39.3469C190.717 38.8312 190.667 38.4152 190.667 37.1342V12.0287ZM121.783 12.0287H114.433V40.5282C114.433 42.9572 113.983 44.571 113.333 45.4694C112.683 46.3678 111.65 46.817 111.65 46.817V47H119.133C120.133 46.7338 121.783 45.5027 121.783 43.1402V12.0287Z" fill="#FAF7F2"/>
<path d="M12.65 40.1788H1.03334C0.316671 40.1788 -0.166662 39.48 0.066671 38.8145L12.7667 1.2478H24.5L11.7333 38.7979C11.4833 39.5299 11.85 40.1788 12.65 40.1788Z" fill="url(#paint0_linear_33957_9337)"/>
<path d="M1.06665 40.1787C1.19999 40.1787 12.6167 40.1787 12.6167 40.1787C13.5167 40.1787 14.3667 39.7795 14.95 39.114L38.2833 12.012H28.9167C28.2167 12.012 27.55 12.2949 27.05 12.8106L1.28332 39.8626C1.03332 40.1288 0.799988 40.1122 0.549988 40.0623C0.766654 40.1787 0.916655 40.1787 1.06665 40.1787Z" fill="url(#paint1_linear_33957_9337)"/>
<path d="M28.8667 12.012H40.2C41.9167 12.012 42.15 13.6425 41.1833 14.7072C38.8833 17.2361 36.9333 19.2658 34.7333 23.3586C31.8833 28.6159 31.6 40.9108 42.25 39.3303C40.1167 40.029 37.85 40.1787 36.4667 40.1787C34.7667 40.1787 30.65 40.1787 30.65 40.1787C30.2 40.1787 28.5667 40.029 27.7167 39.7795C19 37.0676 23.5333 21.4453 29.1833 14.7239C30.3167 13.3763 29.8333 12.1451 28.9167 12.0287C28.85 12.012 28.9167 12.012 28.8667 12.012Z" fill="url(#paint2_linear_33957_9337)"/>
<path d="M38.65 31.178H49.5C48.65 35.537 45.3833 40.1954 36.35 40.1954H30.7333C29.8833 40.1954 28.3833 39.9957 27.7333 39.7961C37.0167 39.48 38.1167 33.9731 38.65 31.178Z" fill="url(#paint3_linear_33957_9337)"/>
</g>
<defs>
<linearGradient id="paint0_linear_33957_9337" x1="11.1971" y1="-0.551692" x2="17.7053" y2="40.4256" gradientUnits="userSpaceOnUse">
<stop stop-color="#FF98B0"/>
<stop offset="0.51" stop-color="#FF3E14"/>
<stop offset="1" stop-color="#8F0182"/>
</linearGradient>
<linearGradient id="paint1_linear_33957_9337" x1="48.0342" y1="10.6647" x2="-24.5425" y2="41.4299" gradientUnits="userSpaceOnUse">
<stop stop-color="#8F0182"/>
<stop offset="0.42" stop-color="#FF3E14"/>
<stop offset="1" stop-color="#FF98B0"/>
</linearGradient>
<linearGradient id="paint2_linear_33957_9337" x1="12.6902" y1="-2.06334" x2="21.9428" y2="50.8413" gradientUnits="userSpaceOnUse">
<stop stop-color="#FF98B0"/>
<stop offset="0.5" stop-color="#FF3E14"/>
<stop offset="0.98" stop-color="#8F0182"/>
</linearGradient>
<linearGradient id="paint3_linear_33957_9337" x1="38.605" y1="25.1791" x2="38.605" y2="48.0518" gradientUnits="userSpaceOnUse">
<stop stop-color="#FF98B0"/>
<stop offset="0.61" stop-color="#FF3E14"/>
<stop offset="0.82" stop-color="#8F0182"/>
</linearGradient>
<clipPath id="clip0_33957_9337">
<rect width="200" height="47" fill="white"/>
</clipPath>
</defs>
</svg>
